<svg xmlns="http://www.w3.org/2000/svg" xml:space="preserve" width="2048" height="2048" style="shape-rendering:geometricPrecision;text-rendering:geometricPrecision;image-rendering:optimizeQuality;fill-rule:evenodd;clip-rule:evenodd"><defs><clipPath id="id0"><path d="M1024 0c565.539 0 1024 458.461 1024 1024s-458.461 1024-1024 1024S0 1589.539 0 1024 458.461 0 1024 0z"/></clipPath><style>.fil1{fill:#afb42b}.fil8{fill:#bdc3c7}.fil7{fill:#c0392b}.fil9{fill:#e74c3c}.fil10{fill:#ecf0f1}.fil4,.fil5{fill:#d81b60;fill-rule:nonzero}.fil5{fill:#ef5350}</style></defs><g id="Layer_x0020_1"><path d="M1024 0c565.539 0 1024 458.461 1024 1024s-458.461 1024-1024 1024S0 1589.539 0 1024 458.461 0 1024 0z" style="fill:#d4e157"/><g style="clip-path:url(#id0)"><g id="_341191000"><path id="_4558282001" class="fil1" d="M1494.27 480.726 2630.15 1616.61l1.51 1.9 1.32 2.04 1.1 2.16.89 2.27.65 2.37.39 2.46.14 2.53L1500.27 496.457l-.14-2.529-.4-2.456-.64-2.37-.89-2.271-1.1-2.163-1.32-2.038z"/><path id="_455828272" class="fil1" d="M1500.27 496.457 2636.15 1632.34l-.03 1.21-.09 1.19-.15 1.18-.21 1.16-.27 1.14-.32 1.11-.37 1.1-.43 1.08-.47 1.05-.53 1.02-.57 1-.62.97-.67.94-.71.91-.75.88-.79.84L1493.29 513.243l.79-.845.75-.876.71-.911.67-.94.62-.97.57-.999.53-1.025.47-1.051.43-1.075.37-1.099.32-1.119.27-1.14.21-1.159.15-1.176.09-1.193z"/><path id="_455829088" class="fil1" d="M1500.27 513.243 2636.15 1649.12l83.73 251.13L1584 764.371z"/><path id="_455830048" class="fil1" d="M1584 764.371 2719.88 1900.25h-1.18L1582.82 764.371z"/><path id="_455830120" class="fil1" d="M1582.82 764.371 2718.7 1900.25v119.71l-.06 2.83-.19 2.8-.32 2.76-.43 2.73-.55 2.69-.67 2.65-.78 2.6-.89 2.55-1 2.5-1.1 2.45-1.2 2.39-1.31 2.33-1.39 2.27-1.49 2.21-1.58 2.13-1.67 2.07-1.75 1.99-1.84 1.92-1.91 1.84-1.99 1.75-2.06 1.68-2.13 1.58-2.21 1.49-2.26 1.41-2.33 1.3-2.39 1.21-2.44 1.11-2.5 1-2.55.9-2.6.78-2.64.68-2.69.56L1531.9 945.233l2.69-.558 2.64-.675 2.6-.786 2.55-.896 2.5-1.002 2.44-1.107 2.39-1.208 2.33-1.307 2.26-1.402 2.21-1.494 2.13-1.585 2.06-1.671 1.99-1.756 1.91-1.838 1.84-1.917 1.75-1.994 1.67-2.065 1.58-2.137 1.49-2.205 1.39-2.269 1.3-2.332 1.21-2.391 1.1-2.448 1-2.501.89-2.552.78-2.601.67-2.646.55-2.688.43-2.73.32-2.765.19-2.8.06-2.831z"/><path id="_455829976" class="fil1" d="M1531.9 945.233 2667.78 2081.12v297.99L1531.9 1243.23z"/><path id="_455830168" class="fil1" d="m1552.1 1258.5 1135.88 1135.88 1.15 1.28 1.12 1.3 1.08 1.33 1.04 1.35 1 1.38.97 1.4.93 1.42.89 1.45.85 1.46.81 1.49.77 1.51.73 1.52.68 1.55.64 1.57.6 1.58.55 1.6.51 1.62.47 1.64.42 1.65.36 1.67.33 1.68.27 1.7.23 1.72.18 1.72.13 1.74.07 1.75.03 1.77-1135.88-1135.88-.03-1.77-.08-1.75-.12-1.74-.18-1.73-.23-1.71-.27-1.7-.33-1.68-.37-1.67-.41-1.65-.47-1.64-.51-1.62-.55-1.6-.6-1.58-.64-1.57-.68-1.55-.73-1.53-.77-1.5-.81-1.49-.85-1.47-.89-1.44-.93-1.42-.97-1.4-1-1.38-1.05-1.35-1.08-1.33-1.11-1.3z"/><path id="_455830000" class="fil1" d="m1568.91 1300.35 1135.88 1135.88v210.02L1568.91 1510.37z"/><path id="_455830240" class="fil1" d="m1568.91 1510.37 1135.88 1135.88-.03 1.77-.07 1.75-.13 1.74-.18 1.72-.23 1.72-.27 1.69-.33 1.69-.36 1.67-.42 1.65-.47 1.64-.51 1.62-.55 1.6-.6 1.58-.64 1.57-.68 1.55-.73 1.52-.77 1.51-.81 1.49-.85 1.46-.89 1.45-.93 1.42-.97 1.4-1 1.38-1.04 1.35-1.08 1.33-1.12 1.3-1.15 1.28-1.19 1.25-1.22 1.23-1.25 1.2-1.29 1.17-1.32 1.14-1135.88-1135.88 1.32-1.14 1.29-1.18 1.25-1.19 1.22-1.23 1.19-1.25 1.15-1.28 1.11-1.3 1.08-1.33 1.05-1.36 1-1.37.97-1.4.93-1.42.89-1.45.85-1.46.81-1.49.77-1.51.73-1.53.68-1.54.64-1.57.6-1.58.55-1.61.51-1.61.47-1.64.41-1.66.37-1.66.33-1.69.27-1.7.23-1.71.18-1.73.12-1.73.08-1.76z"/><path id="_455829664" class="fil1" d="m1545.83 1558.21 1135.88 1135.88-1.24 1.03-1.28 1.01-1.3.98-1.33.96-1.36.93-1.37.9-1.41.87-1.42.85-1.46.81-1.47.79-1.49.76-1.52.73-1.54.69-1.55.67-1.58.63-1.6.6-1.61.57-1.63.54-1.65.5-1.67.47-1.68.43-1.7.4-1.71.37-1.73.32-1.74.29-1.75.26-1.77.21-1.78.18-1.79.14-1.8.1-1.82.06-1.82.02-1135.88-1135.88 1.82-.02 1.81-.06 1.81-.11 1.79-.13 1.78-.18 1.76-.22 1.76-.25 1.74-.29 1.73-.33 1.71-.36 1.7-.4 1.68-.43 1.67-.47 1.65-.5 1.63-.54 1.61-.57 1.6-.6 1.58-.63 1.55-.67 1.54-.7 1.52-.72 1.49-.76 1.47-.79 1.45-.82 1.43-.84 1.4-.87 1.38-.91 1.36-.92 1.33-.96 1.3-.98 1.27-1.01z"/><path id="_455829568" class="fil1" d="M516.102 945.439 1651.98 2081.32l-2.74-.51-2.7-.64-2.65-.75-2.6-.87-2.55-.97-2.5-1.09-2.44-1.19-2.38-1.29-2.32-1.39-2.25-1.48-2.18-1.58-2.12-1.67-2.03-1.76L484.637 930.246l2.037 1.758 2.11 1.67 2.183 1.58 2.251 1.486 2.317 1.39 2.382 1.291 2.44 1.19 2.498 1.084 2.552.975 2.604.866 2.652.751 2.699.636z"/><path id="_455829832" class="fil1" d="M552.737 1576.28 1688.62 2712.16l-1.82-.02-1.81-.06-1.81-.1-1.79-.14-1.78-.18-1.76-.21-1.76-.26-1.74-.29-1.73-.32-1.71-.37-1.7-.4-1.68-.43-1.67-.47-1.65-.5-1.63-.54-1.61-.57-1.6-.6-1.58-.63-1.55-.67-1.54-.69-1.52-.73-1.49-.76-1.47-.79-1.45-.81-1.43-.85-1.4-.87-1.38-.9-1.36-.93-1.33-.96-1.3-.98-1.27-1.01L503.415 1559.24l1.275 1.01 1.303.98 1.329.96 1.354.92 1.379.91 1.403.87 1.428.84 1.449.82 1.473.79 1.495.76 1.517.72 1.536.7 1.557.67 1.577.63 1.597.6 1.613.57 1.632.54 1.65.5 1.667.47 1.683.43 1.697.4 1.714.36 1.727.33 1.741.29 1.755.25 1.767.22 1.778.18 1.791.13 1.802.11 1.812.06z"/><path id="_455830960" class="fil1" d="m1495.26 1576.28 1135.88 1135.88h-942.52L552.737 1576.28z"/><path id="_341191072" class="fil1" d="M547.731 496.457c0-13.658 11.764-24.731 26.274-24.731h899.988c14.51 0 26.276 11.073 26.276 24.731 0 6.48-2.648 12.377-6.98 16.786h6.98l83.733 251.129h-1.179v119.705c0 30.36-22.049 55.819-50.923 61.157v297.992c5.057 2.607 9.737 5.729 13.933 9.28 14.237 12.046 23.074 28.963 23.074 47.84v210.025c0 18.877-8.837 35.794-23.074 47.839-13.172 11.146-31.09 18.066-50.571 18.066H552.738c-19.48 0-37.4-6.92-50.571-18.066-14.237-12.045-23.074-28.962-23.074-47.84v-210.024c0-18.877 8.837-35.794 23.072-47.84a74.165 74.165 0 0 1 13.937-9.28V945.44C486.65 940.585 464 914.85 464 884.076V764.371l83.733-251.129h6.98c-4.333-4.409-6.98-10.306-6.98-16.786z"/></g></g><path d="M1024 0c565.539 0 1024 458.461 1024 1024s-458.461 1024-1024 1024S0 1589.539 0 1024 458.461 0 1024 0z" style="fill:none"/><path style="fill:#ffe7bb" d="M551.102 764.371h963.763v471.705H551.102z"/><path class="fil4" d="M1026.01 1238.67v-124.84H1248.9v124.84zM799.097 1238.67V1132.93h188.787V1238.67z"/><path class="fil5" d="M1531.9 855.317v510.953h-35V855.317zM551.102 855.317v510.953h-35V855.317z"/><path d="M574.006 471.726c-14.511 0-26.275 11.073-26.275 24.731 0 13.657 11.764 24.73 26.275 24.73h899.987c14.511 0 26.275-11.073 26.275-24.73 0-13.658-11.764-24.731-26.275-24.731H574.006z" style="fill:#c0392b;fill-rule:nonzero"/><path class="fil7" d="M463.999 764.371h124.375v119.705c0 34.204-27.984 62.186-62.187 62.186-34.203 0-62.188-27.982-62.188-62.186V764.371z"/><path class="fil8" d="M712.749 764.371H588.374v119.705c0 34.204 27.985 62.186 62.189 62.186 34.202 0 62.186-27.982 62.186-62.186V764.371z"/><path class="fil7" d="M712.749 764.371h124.376v119.705c0 34.204-27.985 62.186-62.189 62.186-34.202 0-62.187-27.982-62.187-62.186V764.371z"/><path class="fil8" d="M961.5 764.371H837.125v119.705c0 34.204 27.984 62.186 62.187 62.186 34.203 0 62.188-27.982 62.188-62.186V764.371z"/><path class="fil7" d="M961.5 764.371h124.375v119.705c0 34.204-27.985 62.186-62.189 62.186-34.202 0-62.186-27.982-62.186-62.186V764.371z"/><path class="fil8" d="M1210.25 764.371h-124.375v119.705c0 34.204 27.984 62.186 62.187 62.186 34.203 0 62.188-27.982 62.188-62.186V764.371z"/><path class="fil7" d="M1210.25 764.371h124.375v119.705c0 34.204-27.985 62.186-62.189 62.186-34.202 0-62.186-27.982-62.186-62.186V764.371z"/><path class="fil8" d="M1459 764.371h-124.375v119.705c0 34.204 27.984 62.186 62.187 62.186 34.203 0 62.188-27.982 62.188-62.186V764.371z"/><path class="fil9" d="M547.732 513.241h124.375l-83.733 251.13H463.999z"/><path class="fil10" d="M672.657 513.241h124.375L713.3 764.371H588.924z"/><path class="fil9" d="M796.973 513.241h83.568l-42.925 251.13H713.241z"/><path class="fil10" d="M1376.44 513.241h-124.37l83.73 251.13h124.38z"/><path class="fil9" d="M1251.52 513.241h-124.38l83.74 251.13h124.37z"/><path class="fil10" d="M1127.2 513.241h-83.18l42.54 251.13h124.38z"/><path class="fil9" d="M1044.83 513.241h-83.179l.604 251.13h124.375z"/><path class="fil10" d="M878.468 513.241h83.183l-.605 251.13H836.671z"/><path class="fil7" d="M1582.82 764.371h-124.375v119.705c0 34.204 27.984 62.186 62.187 62.186 34.203 0 62.188-27.982 62.188-62.186V764.371z"/><path class="fil9" d="M1500.27 513.241h-124.38l83.74 251.13H1584z"/><path d="M552.737 1234.44h942.524c19.481 0 37.4 6.919 50.571 18.065 14.237 12.046 23.074 28.963 23.074 47.84v210.024c0 18.878-8.837 35.795-23.074 47.84-13.171 11.146-31.09 18.066-50.571 18.066H552.737c-19.48 0-37.4-6.92-50.571-18.066-14.237-12.045-23.074-28.962-23.074-47.84v-210.025c0-18.876 8.837-35.793 23.073-47.839 13.174-11.145 31.091-18.065 50.572-18.065z" style="fill:#ef6c00;fill-rule:nonzero"/></g></svg>